<svg width="1152" height="187" viewBox="0 0 1152 187" xmlns="http://www.w3.org/2000/svg"><title>save-your-way-there-d</title><desc>Created with Sketch.</desc><g fill="#fff"><path d="M85.39 52.68c.23 1.29.9 2.8.71 4.75v-.22c-.005 1.524-.128 3.045-.37 4.55v.22c-.41 1.31-.61 2.82-1 4.34-.63 1.52-1.48 2.84-2.11 4.14-.619 1.354-1.323 2.666-2.11 3.93v-.21c-.745 1.397-2.091 2.375-3.65 2.65-1.45.136-2.903-.216-4.13-1-1.09-.63-2.84-1.91-2.86-3.64v.22c-.308-1.567-.023-3.192.8-4.56.85-1.53 1.91-2.62 2.33-3.93.417-1.415.688-2.87.81-4.34.234-1.361.361-2.739.38-4.12-.083-1.533-.321-3.055-.71-4.54-.575-1.358-1.399-2.596-2.43-3.65v-.19c-.855-1.159-1.892-2.172-3.07-3-1.323-.459-2.722-.66-4.12-.59-1.471.141-2.921.453-4.32.93-1.51.45-3 .47-3.88.92-1.126.738-2.202 1.55-3.22 2.43-.85 1.31-1.92 2-2.56 3.07-.422 1.204-.756 2.438-1 3.69-.599 1.187-1.091 2.425-1.47 3.7-.245 1.286-.373 2.591-.38 3.9 0 1.08.47 2.38.49 4.11v-.26l.7 3.89c.23 1.3.68 2.59.92 3.88v-.22c.45 1.51.47 3 .92 3.89l.22.21c.422 1.159 1.023 2.246 1.78 3.22.67 1.29 1.34 2.58 2 3.65l2.65 3.86v-.21c.903 1.246 1.935 2.392 3.08 3.42v.22c.957 1.201 1.985 2.343 3.08 3.42.827 1.176 1.787 2.253 2.86 3.21.988 1.143 1.878 2.368 2.66 3.66v-.22l2.44 3.86c.66.86 1.76 1.93 2.64 3.21.88 1.28 1.12 2.8 1.79 3.87l2.22 3.87c.67 1.29 1.55 2.36 2.22 3.87.45 1.51.69 3 1.14 4.31v.23l.71 4.32c.358 1.417.595 2.863.71 4.32v-.22c.261 3.096.374 6.203.34 9.31-.23 1.4-.565 2.78-1 4.13-.182 1.574-.6 3.111-1.24 4.56l-1.24 4.13-.21.22c-.63 1.31-1.48 2.62-2.11 3.71-.647 1.383-1.427 2.699-2.33 3.93v-.22l-2.33 3.93c-.85 1.09-1.7 2.4-2.55 3.5h-.22c-1.06 1.31-2.57 2-3.42 2.86-1.148.705-2.227 1.519-3.22 2.43-1.07.66-1.93 1.76-3.43 2.65-1.093.812-2.239 1.55-3.43 2.21-1.315.642-2.683 1.168-4.09 1.57l.21-.22c-1.296.739-2.667 1.339-4.09 1.79h-.22c-1.318.091-2.623.326-3.89.7h-.22c-1.3.23-2.59.68-3.89.92h-.29c-1.3 0-2.59.47-4.32.49-1.95 0-3.91-.81-5.43-1-1.743-.099-3.478-.293-5.2-.58-1.74-.19-3.26-1-4.56-1.24-1.419-.541-2.802-1.172-4.14-1.89-1.383-.646-2.699-1.427-3.93-2.33-.985-1.044-2.086-1.974-3.28-2.77v-.21c-1.205-1.031-2.306-2.176-3.29-3.42l-2-3.87c-.67-1.29-1.77-2.57-2.22-4.3-.45-1.51-.26-3.25-.49-4.54-.269-1.5-.433-3.017-.49-4.54 0-1.52.18-3 .16-4.33v-.22c.2-1.3.18-3 .58-4.77v.22c.182-1.534.449-3.056.8-4.56l2.11-4.36c.67-1.288 1.53-2.468 2.55-3.5.72-1.44 1.65-2.764 2.76-3.93h-.22c.85-.88 1.48-2.4 2.77-3.5 1.07-1.31 2.57-2 3.86-2.87h-.22c1.07-.66 2.14-2 3.64-2.86 1.07-.67 2.58-1.33 3.87-2 .86-.23 2.36-1.33 3.88-1.57h-.22c1.347-.387 2.716-.694 4.1-.92h.22c1.3 0 2.6.18 3.9.16h.22c1.398.144 2.781.415 4.13.81 1.36.426 2.673.989 3.92 1.68 2.713 1.006 5.021 2.875 6.57 5.32v.22l2.22 3.87c.23 1.08 1.11 2.37 1.56 3.66.367 1.41.532 2.864.49 4.32.27 1.352.434 2.723.49 4.1.008 1.611-.588 3.167-1.67 4.36-1.057 1.165-2.521 1.881-4.09 2-1.73 0-3.26-1-4.36-1.67v-.22c-1.115-1.162-1.754-2.7-1.79-4.31.009-1.47-.231-2.93-.71-4.32v-.22c-.191-1.44-.652-2.831-1.36-4.1-.782-1.15-1.748-2.164-2.86-3-1.272-.644-2.698-.925-4.12-.81-1.458-.148-2.932.019-4.32.49-1.08.23-2.14 1.55-3.86 2.44-1.125.736-2.2 1.544-3.22 2.42v-.22c-1.07 1.1-2.57 1.77-3.22 2.42h.22l-2.55 3.28v.22c-.64.66-.84 2.18-1.68 3.49-.582 1.195-1.073 2.432-1.47 3.7l-.21.22c-.383 1.193-.585 2.437-.6 3.69-.305 1.285-.506 2.593-.6 3.91.162 1.308.396 2.607.7 3.89v.22c.099 1.127.407 2.226.91 3.24.318 1.197.771 2.355 1.35 3.45.67 1.103 1.484 2.112 2.42 3 .904.834 1.856 1.616 2.85 2.34.87.42 2.17.62 3.48 1.25l3.7 1.25h-.22c1.288.288 2.595.488 3.91.6h.22c1.292.271 2.597.471 3.91.6l4.11-.06c1.325-.352 2.622-.804 3.88-1.35h.22c1.26-.246 2.49-.625 3.67-1.13l.21-.22c1.202-.389 2.356-.912 3.44-1.56 1.316-.559 2.545-1.303 3.65-2.21 1.154-.611 2.234-1.353 3.22-2.21v-.22c1.29-.88 2.36-1.55 3.43-2.43h-.22c.94-1.15 1.942-2.248 3-3.29h-.22c.85-1.041 1.632-2.137 2.34-3.28.85-1.31 1.48-2.62 2.12-3.71.42-1.09.83-2.61 1.24-3.91.514-1.27.932-2.577 1.25-3.91.2-1.09.18-2.6.37-4.34v.22c.093-1.299.076-2.604-.05-3.9v-.22c-.147-1.381-.384-2.75-.71-4.1v-.22c.045-1.305-.124-2.609-.5-3.86-.273-1.381-.806-2.697-1.57-3.88-.23-1.3-1.33-2.15-2-3.65-.696-1.241-1.295-2.535-1.79-3.87-.88-1.29-1.55-2.58-2.43-3.65-.746-1.173-1.633-2.251-2.64-3.21-.828-1.175-1.787-2.252-2.86-3.21h-.22l-2.44-3.86v.22c-1.03-1.307-1.988-2.669-2.87-4.08v.19l-3.3-3.85c-1.1-1.5-2-3-2.87-4.29-.957-.948-1.772-2.029-2.42-3.21-.89-1.72-.91-3.23-1.35-4.1-.876-1.207-1.621-2.504-2.22-3.87-.45-1.29-.47-2.81-.92-3.88-.413-1.416-.724-2.86-.93-4.32-.23-1.08-1.11-2.37-1.35-3.88v-.22l-.06-4.11c.057-1.462.255-2.916.59-4.34v.22c-.017-1.54.181-3.075.59-4.56v.22c.231-1.399.566-2.78 1-4.13l.21-.22c.42-.87.4-2.39 1.24-4.13l2.33-3.93 3.2-3.29v-.22c1.138-.983 2.355-1.869 3.64-2.65 1.299-.791 2.668-1.461 4.09-2 1.279-.677 2.661-1.136 4.09-1.36h-.22c1.469-.581 2.984-1.036 4.53-1.36 1.566-.314 3.168-.408 4.76-.28h-.22c1.633.102 3.243.438 4.78 1 1.436.411 2.824.974 4.14 1.68l3.93 2.33v.22c1.31 1.06 2 2.57 2.86 3.42v.22c1.052 1.085 1.944 2.314 2.65 3.65.687 1.446 1.216 2.961 1.58 4.52l.47 4.32zM189.01 123.15c.842 1.354 1.172 2.964.93 4.54v.22l-1.24 4.56v.22c-.63 1.53-1.26 3-2.1 4.79-.42 1.09-.61 2.61-1.25 3.92l-2.1 4.36c-.813 1.316-1.736 2.56-2.76 3.72-.63 1.52-1.92 2.41-2.55 3.71-.85.88-1.26 2.61-2.33 3.93h-.22c-1.28 1.32-2.79 2-3.64 2.87v-.22l-3.2 3.29h-.22c-1.236.887-2.525 1.699-3.86 2.43-1.371.794-2.81 1.463-4.3 2-1.554.42-3.151.658-4.76.71-1.923-.016-3.829-.354-5.64-1-1.734-.767-3.35-1.777-4.8-3-1.31-1.07-3.06-2.34-4-4.06-.634-.937-1.372-1.799-2.2-2.57-1.53-.84-2-1.27-2.61-1h-.22c-1.03.515-1.971 1.19-2.79 2l-3.87 2.43h.22c-1.13.933-2.353 1.747-3.65 2.43l-3.87 2-.21.22c-1.382.61-2.828 1.066-4.31 1.36-1.51.45-3.25 0-4.55.06-1.432.239-2.892.26-4.33.06h.22c-1.74-.19-3.05-1.47-3.92-1.68-1.09-.63-2.4-1-3.71-1.9h-.22c-.66-.64-2.18-1.27-3.28-2.55h.22c-1.046-.957-1.874-2.126-2.43-3.43-.958-.951-1.773-2.036-2.42-3.22-.62-1.4-1.144-2.84-1.57-4.31-.46-1.51-.26-3.24-.5-4.54-.679-3.05-.942-6.179-.78-9.3v.22c.035-1.696.305-3.378.8-5v.22c.2-1.3.4-2.82.8-4.56v.22c.182-1.534.449-3.056.8-4.56.63-1.52 1.69-2.84 1.89-4.14.63-1.31 1-2.61 1.89-4.36l1.9-3.71c.333-1.359.823-2.675 1.46-3.92 1.06-1.53 2.35-2.41 2.77-3.28 1.06-1.53 2.13-2.41 2.77-3.5.805-1.188 1.733-2.288 2.77-3.28.938-1.218 1.94-2.387 3-3.5l3.21-2.64h.22c1.29-.88 2.58-1.34 3.65-2 1.236-.887 2.525-1.699 3.86-2.43 1.73-.46 3.46-.48 4.54-.71 1.428-.259 2.871-.422 4.32-.49h-.22c1.576-.241 3.178-.264 4.76-.07 1.487.362 2.892 1.003 4.14 1.89 2.112.754 4.098 1.822 5.89 3.17 2.63 2.35 1.53 1.06 2.63 2.13 0 0 .22 0 0-1.08l-.21.22c.715-1.572 1.909-2.877 3.41-3.73 1.487-.488 3.098-.435 4.55.15 1.422.572 2.59 1.637 3.29 3 1.042 1.348 1.387 3.109.93 4.75-.61 3-.18 2.6-1 5.86-.308 1.832-.718 3.645-1.23 5.43l-.21.22c-.043.951-.177 1.895-.4 2.82-1.45 4.57-1.06 2-1.47 3.7v.22c-.42.87 0 1.08-.81 4.13-.233 1.255-.568 2.489-1 3.69-.223 1.401-.557 2.782-1 4.13v.22c-.21.22 0 .22-1 3.69-.074 1.476-.347 2.936-.81 4.34-.41 1.52-1 2.83-1.25 3.92l-.59 4.34c.057 1.381.221 2.755.49 4.11v.22c-.063 1.315.103 2.631.49 3.89.053 1.323.289 2.632.7 3.89.441.547 1.06.923 1.75 1.06h.22c.986.565 2.159.706 3.25.39 1.121-.424 2.201-.946 3.23-1.56 1.123-.661 2.199-1.399 3.22-2.21.964-.844 1.823-1.801 2.56-2.85.883-1.016 1.666-2.115 2.34-3.28.901-1.002 1.686-2.102 2.34-3.28.63-1.09 1.48-2.19 2.12-3.49.63-1.09.84-2.17 1.68-3.7l-.21.22c.63-1.52 1.48-2.62 1.68-3.7l.21-.22c.529-1.168.867-2.414 1-3.69.636-1.17 1.129-2.412 1.47-3.7.185-1.598 1.258-2.953 2.77-3.5 1.511-.877 3.303-1.135 5-.72 1.74.63 2.63 2.35 3.51 3.2v.22l-.05-.07zm-47.81-12.77v-.22c.008-1.398-.232-2.786-.71-4.1v-.22c-.159-1.396-.467-2.77-.92-4.1l.22.21c-.492-.989-1.085-1.924-1.77-2.79l-.22-.21c-.67-1.07-2.62-1.48-3.49-1.68-.65 0-1.08-.2-1.52-.2-1.233-.134-2.48-.042-3.68.27-1.21.462-2.364 1.059-3.44 1.78-1.155.611-2.235 1.352-3.22 2.21l-3.21 2.43c-.812 1.119-1.74 2.148-2.77 3.07-1.035.917-1.964 1.947-2.77 3.07v-.22c-.63 1.31-1.92 2.19-2.55 3.28-.63 1.09-1.49 2.18-2.12 3.49-.63 1.31-1.27 2.4-1.68 3.49-.762 1.362-1.325 2.827-1.67 4.35-.64 1.09-.4 2.61-.8 4.56-.41 1.74-1.26 2.83-1.46 4.13v.22c-.42 1.09-.18 2.6-.37 4.34v-.22c0 1.52-.18 3-.15 4.55.057 1.45.221 2.894.49 4.32.356 1.394.811 2.76 1.36 4.09.23.86 1.1 1.5 1.77 2.57.654.808 1.59 1.338 2.62 1.48h.22c1.106.427 2.285.63 3.47.6 1.189-.246 2.346-.625 3.45-1.13l.21-.22c1.351-.455 2.648-1.055 3.87-1.79h-.22c1.29-.88 2.8-1.34 3.87-2.22 1.07-.88 1.92-2.19 3-3.29h-.22c1.07-1.1 2.35-2.2 3.2-3.29.85-1.09 1.7-2.19 2.55-3.5.669-1.355 1.528-2.607 2.55-3.72.63-1.31 1.26-2.83 1.68-3.92.63-1.52 1-3 1.46-4.35.583-1.416 1.071-2.869 1.46-4.35.41-1.3.61-2.82 1-4.13.153-1.512.203-3.032.15-4.55.18-1.71.55-3.01.36-4.09zM256.39 128.73c-.2.87-.62 2-1 3.26-.63 1.31-1.48 2.4-1.69 3.06-.84 1.74-1.69 2.84-2.33 4.14-.63 1.09-.83 2.61-1.89 3.92-1.028 1.08-2.175 2.039-3.42 2.86-.974 1.083-2.136 1.981-3.43 2.65-1.125 1.004-2.347 1.891-3.65 2.65-1.495.342-3.012.58-4.54.71-1.322.445-2.705.685-4.1.71-1.473-.1-2.93-.372-4.34-.81-1.397-.156-2.778-.427-4.13-.81-.44-.21-1.08 0-2.15.89-1.038.755-1.973 1.642-2.78 2.64-.64.44-1.28 1.53-2.56 2.63-1.29.88-2.8 1.34-3.87 2.22-1.07.88-2.13 2.41-3.42 3.08-1.339.853-2.785 1.526-4.3 2-1.527.587-3.124.974-4.75 1.15h.22c-1.52.61-3.12.997-4.75 1.15-1.914.108-3.83-.16-5.64-.79-1.534-.7-2.994-1.551-4.36-2.54-1.142-1.186-2.173-2.475-3.08-3.85v.22c-1.006-1.198-1.893-2.491-2.65-3.86l-.22-.21c-.45-1.29-1.12-2.8-1.57-4.31v-.22c-.128-1.513-.148-3.034-.06-4.55-.474-1.472-.786-2.991-.93-4.53.017-1.596.14-3.19.37-4.77.2-1.3.4-2.82.8-4.56v.22c.205-1.476.54-2.932 1-4.35.016-1.535.214-3.062.59-4.55v.22c.2-1.52 1.26-3 1.24-4.13.42-1.09.39-2.82.81-4.13.4-2 .82-3.48 1.23-5l2.68-10.21c.553-2.075 1.248-4.11 2.08-6.09.04-.95.171-1.895.39-2.82 1.24-4.13 1.46-3.92 1.46-3.92v.22c.297-1.6 1.315-2.972 2.76-3.72 1.427-.38 2.935-.324 4.33.16 1.382.634 2.531 1.683 3.29 3 .955 1.388 1.365 3.079 1.15 4.75-1 3-1.47 3.05-1.67 4.35-.42 1.09 0 1.3-.8 4.56-.241 1.539-.575 3.062-1 4.56-1 3.91-6.37 25.2-6.78 26.51-.41 1.52-1 2.83-1.46 4.13v-.24c-.092 1.299-.075 2.604.05 3.9v.22c-.223 1.363-.35 2.739-.38 4.12 0 1.3.47 2.59.48 3.89.288 1.249.665 2.476 1.13 3.67l.22.21c.45 1.29.89 1.72 1.75 1.71 1.032.668 2.318.809 3.47.38 1.272-.388 2.499-.911 3.66-1.56l-.21.22c1.192-.659 2.338-1.397 3.43-2.21 1.248-.559 2.405-1.304 3.43-2.21 1.134-.93 2.012-2.135 2.55-3.5.379-1.263.508-2.588.38-3.9-.046-1.369-.438-2.704-1.14-3.88-.725-1.227-1.324-2.523-1.79-3.87-.23-.86-1.32-1.93-1.56-3.66-.202-1.505-.295-3.022-.28-4.54v.22c-.373-1.414-.611-2.861-.71-4.32l-.28-4.33c-.049-1.445.004-2.892.16-4.33.2-1.3.18-2.6.37-4.34.2-1.52 1-2.83 1.25-3.91v-.28l1.24-4.13c.358-1.49.846-2.946 1.46-4.35.647-1.313 1.428-2.556 2.33-3.71.94-1.014 1.942-1.969 3-2.86 1.07-.66 1.92-2 3.21-2.64l.21-.22c1.264-.431 2.567-.739 3.89-.92 1.246-.479 2.551-.789 3.88-.92 1.757.086 3.469.583 5 1.45 1.479.768 2.87 1.694 4.15 2.76l2 3.87.22.21c.506 1.4.887 2.843 1.14 4.31.24 1.51-.17 3 .06 4.33v.22c0 1.3-.18 2.6-.16 4.11v.22c-.2 1.08-.18 2.6-.38 4.12-.2 1.3-.18 2.82-.59 4.56v-.22c-.166 1.395-.437 2.776-.81 4.13-.218 1.33-.553 2.638-1 3.91-.256 1.467-.59 2.919-1 4.35-.41 1.52-.61 3-1 4.78l-1.89 4.36c-.579.971-1.071 1.992-1.47 3.05-.175.592-.386 1.173-.63 1.74h-.65c.185.144.415.218.65.21-.18 2.6 2.83.83 1.52.2h2.16c1.59-.262 3.122-.797 4.53-1.58 1.494-.564 2.876-1.39 4.08-2.44h-.22c1.174-1.33 2.181-2.797 3-4.37.64-.87 1.27-2.18 1.9-3.27.42-1.09.62-2.39 1-3.48.432-.622.788-1.293 1.06-2 .42-1.3 1.45-4.78 3.82-5.68 1.29-.45 3.47.17 4.56.8l-.22-.21c1.31.63 3.05 1.69 3.5 3 1.08 2.17.04 5.43-.61 6.96zm-33-24.65c.213-.989.213-2.011 0-3-.07-1.088-.46-2.132-1.12-3-.308-.412-.679-.774-1.1-1.07-1.151.505-2.121 1.349-2.78 2.42v.22c-.903 1.079-1.688 2.253-2.34 3.5-.42 1.09-.62 2.39-1 3.91-.373 1.354-.644 2.735-.81 4.13-.2 1.3-.18 2.82-.37 4.33v-.22c0 1.73-.39 3.25-.37 4.34-.03 1.448.06 2.897.27 4.33v.11c.131 1.383.369 2.754.71 4.1.301 1.059.752 2.069 1.34 3v.22l.88 1.29c.21 0-.23-.86.62-2.39l-.21.22c.41-1.31 1-2.61 1.46-3.92l.21-.22c.42-1.09.62-2.17 1-3.69s1.26-3 1.45-4.35v-.22c.392-1.495.659-3.021.8-4.56v-.22c.392-1.495.66-3.021.8-4.56l.56-4.7zm2.88 36.77v-.22c.541-.069 1.087.078 1.52.41l-1.52-.19zM318.62 118.13c1.321 1.145 2.125 2.775 2.23 4.52v.65c-.011.301-.082.597-.21.87v.22c-.17 1.764-.505 3.508-1 5.21-.84 1.74-1.69 3.27-2.32 4.8l-1.93 3.68-1.89 3.92c-.647 1.313-1.428 2.557-2.33 3.71v-.22c-.745 1.309-1.598 2.553-2.55 3.72-.938 1.222-1.939 2.394-3 3.51v-.22c-1.07 1.31-2.57 2-3.42 2.86-1.07.66-2.14 2.19-3.43 2.86-1.07.67-1.92 2-3.43 2.65-1.315.642-2.683 1.168-4.09 1.57l-.21.22c-1.335.495-2.629 1.093-3.87 1.79-1.498.327-3.014.564-4.54.71h.22c-2.109.604-4.287.94-6.48 1-1.3 0-2.82-.18-4.12-.16h-.22l-3.91-.81h-.22c-1.436-.411-2.824-.974-4.14-1.68l.22.21c-1.366-.502-2.679-1.139-3.92-1.9-1.31-.63-2.4-1.48-3.49-2.12h-.18c-1.31-1.06-2.41-2.13-3.29-3-1.146-1.027-2.178-2.173-3.08-3.42-.67-1.07-2-2.14-2.65-3.64-.871-1.284-1.615-2.651-2.22-4.08-.652-1.31-1.178-2.68-1.57-4.09v-.22c-.24-1.51 0-3-.28-4.33v-.22c0-1.3-.26-2.81-.27-4.11l-.06-4.33v-.18l.59-4.12c.2-1.3.18-2.82.38-4.33v-.22l1.24-4.13c.54-1.419 1.171-2.802 1.89-4.14l-.21.22c.541-1.419 1.172-2.802 1.89-4.14.333-1.359.823-2.675 1.46-3.92.76-1.23 1.612-2.4 2.55-3.5l2.33-3.71v.22c.741-1.363 1.67-2.615 2.76-3.72h-.22c1.28-1.53 2.78-2.2 3.42-3.08 1.29-.67 2.14-1.76 3.64-2.65 1.131-.932 2.354-1.747 3.65-2.43 1.319-.754 2.685-1.422 4.09-2 1.485-.434 3.004-.745 4.54-.93 1.398-.447 2.853-.686 4.32-.71 1.516-.162 3.048-.111 4.55.15 1.73.19 3.26 1.25 4.57 1.89 1.385.706 2.643 1.639 3.72 2.76v-.22c1.25 1.006 2.295 2.241 3.08 3.64 1.1 1.5 1.13 3.23 1.36 4.74.558 1.452.872 2.986.93 4.54.049 1.518-.001 3.038-.15 4.55-.151 1.554-.487 3.085-1 4.56-.63 1.53-1.48 2.84-2.11 4.14-.67 1.288-1.53 2.468-2.55 3.5-.719 1.388-1.569 2.704-2.54 3.93-.86.66-1.49 2-2.56 3.07-.946 1.021-2.026 1.909-3.21 2.64v.22c-.86.66-1.49 2-2.77 3.07-1.29.88-2.58 1.55-3.65 2.21h.22c-1.29.88-2.58 1.34-3.65 2l-3.65 2c-1.51.67-2.58 1.34-3.87 1.79-1.321.578-2.694 1.03-4.1 1.35h.22c-1.354.251-2.662.707-3.88 1.35-1.059.649-1.939 1.554-2.56 2.63-.42.87-.41 1.52.25 2.81.611 1.155 1.352 2.235 2.21 3.22.724 1.133 1.699 2.084 2.85 2.78h-.22c1.264.786 2.577 1.491 3.93 2.11 1.269.581 2.58 1.069 3.92 1.46 1.09.42 2.38 0 4.11-.06 1.52 0 3 .18 4.11-.27h.22c1.265-.412 2.49-.938 3.66-1.57 1.315-.384 2.61-.835 3.88-1.35l3.87-2.22c1.054-.895 2.056-1.85 3-2.86 1.29-.67 1.92-1.76 3.21-2.86v-.22c1.07-.88 2.36-1.55 3-2.64v-.22c.851-1.041 1.632-2.137 2.34-3.28.786-1.264 1.491-2.577 2.11-3.93l1.9-3.92c.42-1.09.62-2.17 1-3.69.479-1.211.896-2.446 1.25-3.7.693-2.529 2.949-4.315 5.57-4.41 1.694.049 3.344.549 4.78 1.45v.22l-.02-.02zm-61.45 2.57c-.103 1.018.223 2.033.9 2.8h.22c.574.866 1.575 1.349 2.61 1.26l3.45-1.35c1.314-.703 2.682-1.301 4.09-1.79 1.248-.559 2.405-1.304 3.43-2.21h.21c1.124-.891 2.196-1.846 3.21-2.86l3.43-2.64c.85-1.09 1.49-2.19 2.33-3.5.925-.962 1.78-1.987 2.56-3.07.42-.87.83-2.39 1.46-3.7.632-1.095 1.126-2.264 1.47-3.48v.22c.223-1.144.354-2.305.39-3.47-.035-1.018-.527-1.966-1.34-2.58v-.25c-.721-.636-1.648-.991-2.61-1-1.233-.121-2.478-.029-3.68.27-1.121.331-2.204.781-3.23 1.34-1.086.612-2.093 1.355-3 2.21h-.22c-.988.733-1.918 1.542-2.78 2.42v-.24c-1.113 1.064-2.118 2.237-3 3.5-1.058 1.042-2.059 2.141-3 3.29-.901 1.308-1.678 2.697-2.32 4.15-.64 1.09-1 2.61-1.68 3.92-.84 1.74-1.69 3.05-1.89 4.36-.425.76-.764 1.565-1.01 2.4zM928.01 15.35c-.152 1.486-.487 2.947-1 4.35l-.21.22c-.63 1.09-1.26 2.62-2.11 3.93l-3.2 3.29c-1.07 1.31-2.57 2-3.42 2.86-1.07.66-1.92 2-3.21 2.86h.22c-1.242.821-2.534 1.563-3.87 2.22-1.29.67-2.36 1.33-3.87 2l.21-.22c-1.408.783-2.94 1.318-4.53 1.58h.22c-1.404.506-2.849.888-4.32 1.14-1.435.196-2.882.289-4.33.28-1.73 0-3-.39-4.34-.37-1.445.05-2.892-.004-4.33-.16-1.238.147-2.465.381-3.67.7-1.18.176-2.337.481-3.45.91-1.186.558-2.273 1.304-3.22 2.21v-.22c-1.07 1.31-2.35 2-2.56 2.85-.63 1.09-1 2.61-1.89 4.36-.616 1.327-1.105 2.71-1.46 4.13-.65 1.39-1.14 2.849-1.46 4.35-.729 1.408-1.361 2.865-1.89 4.36l-1.24 4.13-1.25 3.91c-.41 1.428-.744 2.877-1 4.34-.63 1.52-1.48 2.62-1.68 3.92-.42 1.09-.4 2.6-.81 4.13-.63 1.52-1.26 2.83-1.68 4.14l-1.25 3.91c-.41 1.31-.4 2.6-.8 4.34-.42 1.3-1 2.61-1.46 3.92-.42 1.09-.4 2.6-.81 4.34-.48 1.211-.897 2.446-1.25 3.7v.22l-1.24 4.13c-.41 1.3-1 2.83-1.25 3.91v.22c-.42 1.09-.61 2.61-1 4.13-.42 1.31-1 2.61-1.46 3.92-.41 1.52-1 2.83-1.46 4.13l-1.24 4.13v-.22c-.2 1.08 0 2.6-.37 4.55l-1.25 3.91c-.41 1.52-1 2.83-1.46 4.13-.547 1.258-.966 2.568-1.25 3.91-.41 1.31-.61 2.82-1 4.35-.42 1.09-.4 2.6-.81 4.12-.428 1.257-.918 2.492-1.47 3.7v.22l-1.24 4.13c-.84 2.18-3 4.37-5.57 4.41h-1.52c-1.624-.369-3.039-1.36-3.94-2.76-.734-1.405-.836-3.056-.28-4.54.415-1.427.749-2.876 1-4.34.355-1.43.625-2.879.81-4.34.581-1.269 1.069-2.58 1.46-3.92l1.24-4.13c.42-1.09.4-2.61.81-4.34l1.24-4.13c.41-1.3.83-2.61 1.24-4.13.42-1.09.61-2.61 1-4.13v.22c.314-1.477.728-2.93 1.24-4.35.6-1.187 1.092-2.425 1.47-3.7v-.22c.42-1.3.61-2.61 1-4.35v.22c.231-1.468.565-2.919 1-4.34.42-1.3 1-2.61 1.46-3.92.46-1.31.61-2.61 1-4.34l1.24-4.13c.433-1.276.767-2.583 1-3.91.41-1.52 1-2.83 1.46-4.13.41-1.52 1-2.83 1.46-4.13.42-1.09.61-2.61 1-4.13.41-1.31.61-2.61 1-4.13s1-2.83 1.46-4.13l1.24-4.13c.42-1.09.4-2.6.81-4.12l1.24-4.13c.41-1.52 1-2.83 1.46-4.13.63-1.52 1.7-2.62 1.9-3.71l.21-.22c.42-.87.4-2.39 1.24-4.13l-.21.22c.63-1.52 1.7-2.62 1.9-3.71l.21-.22c.42-1.09.61-2.61 1.24-4.13.612-.969.827-2.137.6-3.26v-.22c0-1.08-.46-1.73-1.55-2.79v.23c-.904-.797-2.065-1.241-3.27-1.25-1.73-.19-3.26-1-4.78-1.23-1.52-.23-3 0-5-.15h.22c-1.95 0-3.47-.39-5-.37h-.21c-1.293-.161-2.598-.215-3.9-.16-1.309.045-2.611.209-3.89.49h-.22c-1.381.056-2.755.22-4.11.49h-.21c-1.238.147-2.465.38-3.67.7h.22c-1.388.299-2.757.679-4.1 1.14l.21-.22c-1.259.508-2.482 1.103-3.66 1.78-1.26.603-2.556 1.127-3.88 1.57h.22l-3.22 2.43c-.63 1.09-1.27 2.18-2.12 3.49-.975.833-1.836 1.792-2.56 2.85-.42 1.09-.62 2.39-1 3.91-.432 1.201-.767 2.435-1 3.69-.171 1.219-.228 2.451-.17 3.68 0 1.08.68 2.16.92 3.67v-.22c.45 1.51.47 2.81.92 3.89.59 1.1 1.334 2.11 2.21 3v.22c.658.999 1.564 1.808 2.63 2.35h.22c.861.861 1.908 1.515 3.06 1.91 1.09.42 2.39.18 3.9.38 1.233.067 2.47-.024 3.68-.27h-.21c1.473-.267 2.992-.06 4.34.59 1.511.764 2.574 2.194 2.87 3.86v-.22c.68 1.94-.39 3.47-1 4.56l.21-.22c-.695 1.517-2.029 2.646-3.64 3.08-1.57.318-3.156.555-4.75.71-1.522-.045-3.041-.169-4.55-.37-1.484-.282-2.94-.697-4.35-1.24-1.09-.42-3-.61-4.57-1.45-1.53-1.06-2.41-2.13-3.72-3v-.22c-1.09-.85-2-2.35-3.08-3.21-.66-1.07-2.2-2.13-2.87-3.64-.755-1.39-1.423-2.827-2-4.3-.45-1.29-1.12-2.58-1.57-4.09v-.22c-.24-1.51-.26-3-.49-4.32v-.22c0-1.52.39-3 .37-4.34v-.22c.2-1.3-.25-2.81-.06-4.33v-.22c.41-1.74 1.47-3.05 1.68-4.14.351-1.562.836-3.091 1.45-4.57.86-1.145 1.785-2.24 2.77-3.28v-.22c.843-1.228 1.768-2.397 2.77-3.5 1.124-.969 2.195-1.997 3.21-3.08 1.07-.66 1.92-2 3.42-3.08h-.22c1.38-.904 2.816-1.719 4.3-2.44l-.21.22c1.07-.66 2.36-1.33 4.08-2.22l4.1-1.35c1.51-.45 3-.47 4.32-.92h.22c1.343-.461 2.712-.841 4.1-1.14h.21c1.52 0 3-.26 4.54-.28h-.22c1.505-.2 3.022-.294 4.54-.28 1.52 0 3 .39 4.34.37h.22l3.91.81c1.285-.21 2.588-.301 3.89-.27l3.91.6 3.91.81h-.22c1.52 0 2.82.39 3.9.38h.22c1.303.115 2.616.024 3.89-.27 1.252-.179 2.482-.488 3.67-.92l.21-.22c1.2-.328 2.304-.938 3.22-1.78h.22c1.076-.709 2.017-1.602 2.78-2.64h.22c.789-1.267 1.718-2.441 2.77-3.5v.22l3.21-3.08v-.22l3.21-2.64h.32c1.212-.708 2.36-1.521 3.43-2.43h.21c2.272-1.789 4.809-3.213 7.52-4.22l-.21.22c1.297-.795 2.666-1.464 4.09-2 1.51-.24 2.81-.25 4.11-.49 1.435-.196 2.882-.29 4.33-.28 1.375-.05 2.753.004 4.12.16 1.566.069 3.109.408 4.56 1l-.22-.21c1.322.613 2.512 1.479 3.5 2.55 1.344.674 2.535 1.617 3.5 2.77 1.037 1.26 1.793 2.725 2.22 4.3.413 1.561.569 3.179.46 4.79zm-11.93-1.79c-.45-.86-1.32-1.5-3.49-1.9-1.449-.113-2.906-.022-4.33.27h-.22c-1.467.024-2.922.263-4.32.71-1.508.408-2.957 1.01-4.31 1.79-1.193.737-2.339 1.548-3.43 2.43-1.157.769-2.173 1.733-3 2.85-1.29.88-2.36 1.76-3.43 2.65v-.22c-.737.794-1.249 1.771-1.48 2.83-.227.37-.283.821-.152 1.235.13.414.434.752.832.925.44.43 1.52.63 3 .61 1.48-.02 2.81-.25 4.11-.27h-.22l3.89-.7h-.14c1.51-.45 2.59-.9 3.88-1.35l-.21.22c1.5-.89 2.58-1.12 3.66-1.78 1.5-.89 2.58-1.12 3.43-2.21.86-.44 1.49-1.75 2.56-3.07.96-.767 1.82-1.65 2.56-2.63 1.03-1.74 1.24-2.18.81-2.39zM957.71 113.24c-.2.985-.537 1.938-1 2.83-.215.96-.492 1.906-.83 2.83v.18c-.391 1.171-.961 2.274-1.69 3.27-.541 1.419-1.172 2.802-1.89 4.14-.498 1.366-1.131 2.68-1.89 3.92-.619 1.353-1.324 2.666-2.11 3.93-.85 1.53-1.7 2.62-2.54 3.93-1.091 1.023-2.025 2.203-2.77 3.5h-.22l-3 3.29c-1.035 1.138-2.18 2.17-3.42 3.08-1.309.96-2.671 1.845-4.08 2.65-1.29.45-2.8 1.34-4.3 1.79-1.576.244-3.178.267-4.76.07-1.967.075-3.935-.116-5.85-.57-1.516-.65-2.974-1.426-4.36-2.32-1.191-1.064-2.228-2.289-3.08-3.64v.22c-.98-1.172-1.797-2.47-2.43-3.86-.75-1.423-1.283-2.95-1.58-4.53-.612-1.382-1.068-2.827-1.36-4.31-.128-1.44-.148-2.887-.06-4.33-.142-1.457-.017-2.928.37-4.34-.05-1.519.003-3.039.16-4.55.2-1.09.18-2.6.59-4.34v.22c.2-1.52.83-2.83 1-3.91v-.22c.41-1.31.61-2.61 1-4.13v.22c.2-1.3 1-2.61 1.25-3.7v.22c.2-1.3.61-2.61.82-3.48l.6-4.12c0 1.3.38-4.12.44.21v-.22c.2-1.09 0-2.81.15-4.55.301-1.356.498-2.734.59-4.12v-.22c.263-1.283.317-2.6.16-3.9-.221-1.227-.68-2.399-1.35-3.45h-.65c-.87 0-1.73.46-3.45 1.35l.22-.2c-1.155.61-2.235 1.352-3.22 2.21-1.123.813-2.195 1.695-3.21 2.64-1.034.918-1.963 1.947-2.77 3.07-.877 1.096-1.657 2.268-2.33 3.5-.86.88-1.05 2.18-1.9 3.71-.995 1.481-1.913 3.014-2.75 4.59-.85 1.53-1.91 3.06-2.76 4.37-.679 1.501-1.454 2.958-2.32 4.36-.41 1.52-.82 3.26-1.24 4.35-.577 1.563-1.061 3.16-1.45 4.78v.22c-.493 1.571-.903 3.166-1.23 4.78-.252 1.395-.586 2.774-1 4.13-1 3-1.26 3-1.46 4.13-.61 3-.83 3-1 4.13-.409 1.428-.743 2.877-1 4.34-.131 1.468-.399 2.921-.8 4.34v-.22c-.6 3.26-1 3.26-1.24 4.35v-.22c-.644 2.385-2.684 4.131-5.14 4.4v-1.3c-.22 0-.22 0-.21.65-2.088.57-4.314-.167-5.65-1.87-1.188-1.694-1.609-3.81-1.16-5.83.204-1.405.539-2.787 1-4.13.253-1.395.587-2.774 1-4.13v.22c.221-1.401.556-2.783 1-4.13.459-1.415.794-2.867 1-4.34.42-1.09.2-1.3.81-4.13 1.45-5 .86-.88 1.46-3.92v-.22c.182-1.32.453-2.626.81-3.91.61-3 .82-3 1-4.13.397-1.274.668-2.583.81-3.91.62-2 .84-2.18 1.46-4.35.219-1.391.716-2.724 1.46-3.92v-.22c.42-.87 0-1.08.81-4.12v.22c.22-1.402.555-2.783 1-4.13.62-2 .62-2.17 3.51-12.39.135-1.396.406-2.776.81-4.12 1-3-.42 1.09.6-4.12v-.22c1-2.83 1.26-2.83 1.46-3.92.21-.44.21-.44.81-3.91l1.24-4.35c.134-1.4.405-2.783.81-4.13v.22c.297-1.437.788-2.826 1.46-4.13.088-1.406.36-2.795.81-4.13.61-3 1-3 1.24-4.13.252-1.395.586-2.774 1-4.13.63-1.52 1.69-3.05 3-3.5 1.487-.495 3.102-.438 4.55.16l.22.21c1.344.466 2.497 1.363 3.28 2.55 1.096 1.234 1.521 2.924 1.14 4.53-.058 1.409-.3 2.804-.72 4.15v-.22c-.369 1.348-.857 2.659-1.46 3.92v-.22c-.2 1.09.23 1.3-.38 4.12v.22c-1.24 3.91-1.25 3.48-1.25 3.48-.527 1.323-.863 2.713-1 4.13-.21.22 0 .22-1 3.91-.202 1.194-.538 2.361-1 3.48-.4 2.17-.61 2.82-.6 3.26 1.111-.445 2.19-.967 3.23-1.56 1.639-.929 3.372-1.68 5.17-2.24 1.682-.522 3.422-.838 5.18-.94 1.501.046 2.979.386 4.35 1 1.381.257 2.707.751 3.92 1.46h.22c1.221.938 2.393 1.94 3.51 3v.22c.764 1.284 1.365 2.658 1.79 4.09.23 1.08 1.11 2.37 1.35 4.09.281 1.424.445 2.869.49 4.32 0 1.3-.18 2.81-.16 4.11.054 1.518.004 3.039-.15 4.55v-.18c-.026 1.453-.15 2.903-.37 4.34-.245 1.252-.58 2.485-1 3.69-.232 1.399-.566 2.78-1 4.13l-1 3.7c-.42 1.09-.4 2.39-.81 3.91v-.22c-.2 1.52-.83 2.83-1 3.91l-.6 3.9c-.162 1.293-.215 2.598-.16 3.9v.22c-.2 1.52-.83 2.61-.81 3.69.115 1.385.352 2.757.71 4.1.24 1.94.26 3.24.7 4.1.378.955 1.193 1.67 2.19 1.92 1.112.436 2.348.436 3.46 0 1.156-.33 2.245-.857 3.22-1.56 1.149-.537 2.229-1.208 3.22-2l2.78-2.85h-.22l2.55-3.28c.847-.967 1.628-1.99 2.34-3.06v-.22c.879-1.049 1.594-2.226 2.12-3.49.546-1.11.965-2.277 1.25-3.48l.21-.22c.63-1.52 1.7-2.41 1.9-3.27.511-1.346.925-2.726 1.24-4.13.432-1.201.767-2.435 1-3.69v-.22c.641-1.497 1.768-2.734 3.2-3.51l-.21.22c1.482-.738 3.201-.839 4.76-.28 1.458.7 2.679 1.813 3.51 3.2.895 1.396 1.227 3.079.93 4.71zM1019.08 105.47c1.321 1.145 2.125 2.775 2.23 4.52v.65c-.008.3-.076.596-.2.87v.22c-.171 1.764-.506 3.508-1 5.21-.84 1.74-1.69 3.27-2.32 4.8l-1.9 3.71-1.89 3.92c-.649 1.312-1.43 2.555-2.33 3.71v-.22c-.745 1.309-1.598 2.553-2.55 3.72-.937 1.219-1.939 2.387-3 3.5v-.22c-1.07 1.31-2.57 2-3.43 2.86-1.07.66-2.13 2.19-3.42 2.86-1.07.66-1.92 2-3.43 2.64-1.314.643-2.683 1.168-4.09 1.57l-.21.22c-1.335.494-2.629 1.093-3.87 1.79-1.498.328-3.014.565-4.54.71h.26c-2.109.604-4.287.94-6.48 1-1.3 0-2.82-.18-4.11-.16h-.22l-3.91-.81h-.28c-1.436-.412-2.823-.975-4.14-1.68l.22.21c-1.367-.501-2.68-1.138-3.92-1.9-1.31-.63-2.4-1.48-3.49-2.12h-.22c-1.31-1.07-2.41-2.13-3.29-3-1.146-1.027-2.179-2.173-3.08-3.42-.66-1.07-2-2.14-2.65-3.64-.872-1.284-1.616-2.65-2.22-4.08-.652-1.31-1.178-2.68-1.57-4.09v-.24c-.24-1.51 0-3-.27-4.33v-.17c0-1.3-.26-2.81-.27-4.11l-.06-4.33v-.26l.59-4.12c.2-1.3.18-2.82.37-4.34v-.22l1.24-4.13c.54-1.419 1.171-2.802 1.89-4.14l-.21.22c.539-1.42 1.17-2.803 1.89-4.14.331-1.36.821-2.675 1.46-3.92.76-1.229 1.613-2.399 2.55-3.5l2.33-3.71v.22c.74-1.364 1.669-2.617 2.76-3.72h-.22c1.28-1.53 2.78-2.2 3.42-3.08 1.29-.67 2.14-1.76 3.64-2.65 1.13-.933 2.353-1.747 3.65-2.43 1.319-.754 2.685-1.422 4.09-2 1.482-.433 2.997-.745 4.53-.93 1.398-.447 2.853-.686 4.32-.71 1.516-.161 3.048-.111 4.55.15 1.74.19 3.26 1.25 4.57 1.89 1.386.706 2.643 1.639 3.72 2.76v-.2c1.25 1.005 2.296 2.241 3.08 3.64 1.1 1.5 1.13 3.23 1.36 4.74.558 1.452.872 2.986.93 4.54.049 1.518-.001 3.038-.15 4.55-.15 1.554-.486 3.085-1 4.56-.63 1.52-1.48 2.83-2.11 4.14-.67 1.288-1.529 2.468-2.55 3.5-.719 1.388-1.57 2.704-2.54 3.93-.86.66-1.49 2-2.56 3.07-.946 1.021-2.025 1.909-3.21 2.64v.22c-.86.66-1.49 2-2.77 3.07-1.29.88-2.58 1.55-3.65 2.21h.22c-1.29.88-2.58 1.34-3.65 2l-3.65 2c-1.51.67-2.58 1.33-3.87 1.79-1.318.577-2.687 1.029-4.09 1.35h.22c-1.354.252-2.662.707-3.88 1.35-1.059.649-1.939 1.554-2.56 2.63-.42.87-.41 1.52.25 2.81.61 1.155 1.351 2.236 2.21 3.22.725 1.129 1.7 2.077 2.85 2.77h-.21c1.264.787 2.576 1.491 3.93 2.11 1.269.581 2.58 1.069 3.92 1.46 1.09.42 2.38 0 4.11-.06 1.51 0 3 .18 4.11-.27h.22c1.265-.412 2.49-.938 3.66-1.57 1.315-.385 2.61-.835 3.88-1.35l3.87-2.22c1.055-.894 2.056-1.849 3-2.86 1.29-.67 1.93-1.76 3.21-2.86v-.22c1.07-.88 2.36-1.55 3-2.64v-.22c.851-1.041 1.633-2.136 2.34-3.28.786-1.26 1.491-2.57 2.11-3.92l1.89-3.92c.42-1.09.62-2.17 1-3.69.479-1.211.896-2.446 1.25-3.7.693-2.529 2.949-4.315 5.57-4.41 1.694.05 3.344.55 4.78 1.45v.22l-.01.01zm-61.45 2.61c-.103 1.018.223 2.033.9 2.8h.22c.593.855 1.606 1.316 2.64 1.2l3.45-1.35c1.314-.703 2.682-1.301 4.09-1.79 1.248-.559 2.405-1.304 3.43-2.21h.22c1.124-.891 2.196-1.846 3.21-2.86l3.43-2.64c.85-1.09 1.49-2.19 2.34-3.5.925-.962 1.78-1.987 2.56-3.07.42-.87.83-2.39 1.46-3.7.632-1.095 1.126-2.264 1.47-3.48v.22c.224-1.144.355-2.305.39-3.47-.034-1.018-.526-1.967-1.34-2.58v-.22c-.721-.636-1.648-.991-2.61-1-1.233-.121-2.478-.03-3.68.27-1.12.333-2.203.782-3.23 1.34-1.086.612-2.093 1.354-3 2.21h-.22c-.988.733-1.918 1.542-2.78 2.42v-.22c-1.115 1.067-2.12 2.243-3 3.51-1.057 1.043-2.059 2.141-3 3.29-.903 1.308-1.683 2.698-2.33 4.15-.63 1.09-1 2.61-1.68 3.92-.84 1.74-1.69 3.05-1.89 4.36-.44.758-.792 1.563-1.05 2.4zM1088.24 112.08v.22c-.41 1.52-1 2.83-1.46 4.35v.22c-.63 1.52-1 2.83-1.67 4.57l-.21.22c-.49 1.407-1.051 2.789-1.68 4.14l-1.9 3.92-2.33 3.93c-.85 1.53-2.13 2.63-2.76 3.72-.875 1.172-1.655 2.413-2.33 3.71h-.22c-1.029 1.079-2.176 2.039-3.42 2.86v.22c-1.07.88-1.7 2.19-3.42 3.29h.22c-1.5 1.1-3.23 1.34-4.31 1.79-1.272.952-2.639 1.77-4.08 2.44-1.568.296-3.168.39-4.76.28-1.95 0-3.89.27-5.63-.36-1.501-.68-2.957-1.455-4.36-2.32-1.226-1.093-2.332-2.313-3.3-3.64v-.22c-.892-1.236-1.706-2.525-2.44-3.86l-.22-.21c-.415-1.49-.725-3.007-.93-4.54v.27c-.413-1.561-.724-3.148-.93-4.75-.201-1.505-.294-3.022-.28-4.54v-.22c.2-1.3-.25-2.59-.27-4.33v-.22l.81-4.34v-.22c2.05-8.25 2.25-9.77 2.45-10.86.2-1.52.61-2.82.6-3.69-.107-1.231-.662-2.381-1.56-3.23-.706-1.074-1.596-2.016-2.63-2.78-.824-.706-1.704-1.345-2.63-1.91l-3.27-1.9c-.521-.667-1.212-1.182-2-1.49l-.42.87.21-.22c-.41 1.31-1 2.61-1.46 3.92v-.22c-.186 1.461-.457 2.91-.81 4.34l-1.25 3.91v-.22c-.312 1.477-.726 2.93-1.24 4.35-.581 1.27-1.069 2.58-1.46 3.92-.55 1.363-1.52 2.516-2.77 3.29-1.38.541-2.894.635-4.33.27-1.52-.63-2.41-2.13-3.07-3-.999-1.283-1.413-2.927-1.14-4.53l.59-4.12c.41-1.52 1-2.83 1.46-4.35.42-1.09.61-2.61 1-4.13.41-1.74 1.47-3.05 1.68-4.14l1.24-4.13c.21-.22-.22-.21 2.28-7.61l2.12-3.49c.243-.272.535-.495.86-.66 1.51-.67 3.47.38 5 1 1.315.521 2.505 1.315 3.49 2.33v-.2c1.309 1.104 2.699 2.107 4.16 3 1.218 1.119 2.537 2.123 3.94 3 1.215.702 2.384 1.48 3.5 2.33.844.964 1.801 1.824 2.85 2.56v.22c.976.974 2.001 1.899 3.07 2.77 1.192 1.619 2.23 3.347 3.1 5.16.23 1.08 1.12 2.37 1.35 3.88.168 1.443.114 2.903-.16 4.33v-.22c.005 1.382-.122 2.762-.38 4.12-.391 1.859-.947 3.679-1.66 5.44v.65c0 .43-.4 2.39-1 5.21-.241 1.579-.365 3.173-.37 4.77v.22c-.092 1.226-.076 2.457.05 3.68 0 1.73-.4 2.82.05 3.9.219 1.158.675 2.257 1.34 3.23.361.947 1.079 1.715 2 2.14.87.42 1.95 0 3.24-.26h-.22c1.51-.45 2.59-.68 3.67-1.13 1.061-.808 2.064-1.69 3-2.64 1.07-1.1 2.36-1.76 3-2.64.906-.978 1.761-2.003 2.56-3.07.846-.968 1.628-1.99 2.34-3.06.63-1.09.83-2.61 1.68-3.92l1.9-3.71c.64-1.09 1.27-2.4 1.9-3.71.546-1.11.965-2.277 1.25-3.48.374-1.28.645-2.587.81-3.91.19-1.74 1.91-3.06 3.2-3.73 1.43-.651 3.051-.751 4.55-.28 1.425.597 2.537 1.76 3.07 3.21.977 1.181 1.397 2.727 1.15 4.24zM1149.39 103.69c1.321 1.145 2.125 2.775 2.23 4.52v.65c-.008.3-.076.596-.2.87v.22c-.17 1.764-.505 3.508-1 5.21-.84 1.74-1.69 3.27-2.32 4.79l-1.9 3.71-1.9 3.92c-.648 1.313-1.429 2.556-2.33 3.71v-.21c-.745 1.306-1.598 2.547-2.55 3.71-.936 1.223-1.938 2.395-3 3.51v-.22c-1.06 1.31-2.57 2-3.42 2.86-1.07.67-2.13 2.2-3.42 2.86-1.07.67-1.92 2-3.43 2.65-1.315.643-2.683 1.168-4.09 1.57l-.21.22c-1.334.495-2.628 1.094-3.87 1.79-1.498.328-3.014.565-4.54.71h.22c-2.11.604-4.287.94-6.48 1-1.3 0-2.82-.18-4.11-.16h-.22l-3.91-.81h-.22c-1.436-.412-2.823-.975-4.14-1.68l.22.21c-1.366-.498-2.679-1.131-3.92-1.89-1.31-.63-2.4-1.48-3.49-2.12h-.21c-1.31-1.06-2.41-2.13-3.29-3-1.144-1.028-2.177-2.175-3.08-3.42-.66-1.07-2-2.14-2.65-3.64-.872-1.284-1.615-2.651-2.22-4.08-.651-1.311-1.177-2.68-1.57-4.09v-.22c-.24-1.51 0-3-.27-4.33v-.22c0-1.3-.26-2.81-.27-4.11l-.06-4.33v-.22l.59-4.12c.2-1.3.18-2.82.37-4.34v-.22l1.24-4.13c.541-1.419 1.172-2.802 1.89-4.14l-.21.22c.54-1.419 1.172-2.802 1.89-4.14.333-1.359.823-2.675 1.46-3.92.76-1.23 1.612-2.4 2.55-3.5l2.33-3.71v.22c.74-1.364 1.669-2.616 2.76-3.72h-.25c1.28-1.53 2.79-2.2 3.42-3.08 1.29-.67 2.14-1.76 3.64-2.65 1.131-.932 2.354-1.747 3.65-2.43 1.319-.754 2.685-1.422 4.09-2 1.482-.434 2.997-.745 4.53-.93 1.398-.447 2.853-.686 4.32-.71 1.516-.161 3.048-.111 4.55.15 1.74.19 3.27 1.25 4.57 1.89 1.386.706 2.643 1.639 3.72 2.76v-.22c1.25 1.005 2.296 2.241 3.08 3.64 1.1 1.5 1.13 3.23 1.36 4.74.556 1.449.871 2.979.93 4.53.048 1.518-.002 3.038-.15 4.55-.15 1.554-.486 3.085-1 4.56-.63 1.53-1.48 2.83-2.11 4.14-.67 1.288-1.53 2.468-2.55 3.5-.722 1.389-1.576 2.705-2.55 3.93-.86.66-1.49 2-2.55 3.07-.946 1.021-2.026 1.909-3.21 2.64v.22c-.86.66-1.49 2-2.77 3.07-1.29.88-2.58 1.55-3.65 2.21h.22c-1.29.88-2.58 1.34-3.65 2l-3.65 2c-1.51.67-2.58 1.33-3.87 1.78-1.318.578-2.687 1.03-4.09 1.35h.22c-1.354.252-2.662.707-3.88 1.35-1.059.65-1.938 1.554-2.56 2.63-.42.87-.41 1.52.26 2.81.611 1.155 1.352 2.235 2.21 3.22.724 1.13 1.7 2.078 2.85 2.77h-.22c1.264.786 2.577 1.491 3.93 2.11 1.269.581 2.58 1.069 3.92 1.46 1.09.42 2.38 0 4.11-.06 1.51 0 3 .17 4.11-.27h.22c1.265-.412 2.49-.937 3.66-1.57 1.315-.384 2.61-.835 3.88-1.35l3.87-2.22c1.054-.895 2.055-1.85 3-2.86 1.29-.67 1.93-1.76 3.21-2.86v-.22c1.07-.88 2.36-1.55 3-2.64v-.22c.85-1.041 1.632-2.137 2.34-3.28.786-1.264 1.491-2.577 2.11-3.93l1.89-3.92c.42-1.09.62-2.17 1-3.7.48-1.211.897-2.446 1.25-3.7.693-2.529 2.949-4.315 5.57-4.41 1.694.049 3.344.549 4.78 1.45v.22l-.01.04zm-61.45 2.57c-.102 1.018.224 2.032.9 2.8h.22c.573.867 1.575 1.351 2.61 1.26l3.45-1.34c1.315-.702 2.682-1.3 4.09-1.79 1.249-.559 2.405-1.304 3.43-2.21h.21c1.124-.891 2.195-1.846 3.21-2.86l3.43-2.65c.85-1.09 1.49-2.19 2.33-3.5.925-.961 1.781-1.987 2.56-3.07.42-.87.83-2.39 1.47-3.7.631-1.095 1.125-2.264 1.47-3.48v.22c.222-1.144.353-2.305.39-3.47-.035-1.018-.527-1.966-1.34-2.58v-.21c-.721-.636-1.648-.991-2.61-1-1.233-.121-2.478-.03-3.68.27-1.121.333-2.203.782-3.23 1.34-1.086.613-2.093 1.355-3 2.21h-.22c-.988.734-1.917 1.543-2.78 2.42v-.22c-1.113 1.064-2.118 2.237-3 3.5-1.058 1.042-2.059 2.141-3 3.29-.905 1.308-1.685 2.697-2.33 4.15-.63 1.09-1 2.61-1.68 3.92-.84 1.74-1.69 3.05-1.89 4.36-.422.741-.76 1.525-1.01 2.34zM402 87.46c.691 1.145.54 2.61-.37 3.59-2.86 4-6 8-8.26 11l-.08.17c-2.7 3.53-5.57 7.15-8.35 10.77-2.13 2.53-3.34 5.71-4.29 9.38-.55 2.51-1.35 4.93-2 7.6l-2 7.52c-.51 1.737-1.128 3.44-1.85 5.1-.672 1.718-2.185 2.966-4 3.3-.42 0-.75.09-1.08.1-.935.085-1.866-.202-2.59-.8-.67-.57-1.19-1.82-1.06-4.07l-.17-.16.24-1c.23-1.08.38-2.42.7-3.67.48-1.75.48-1.75.87-3.42.95-3.68 1.73-7.44 2.76-11.2 1.059-3.505 1.034-7.249-.07-10.74-1.05-3.73-1.94-7.55-2.9-11.2-.44-1.74-.88-3.4-1.4-5.06l-.43-1.16c-.17-.58 0-1.17-.19-1.75-.53-2.24-.14-3.91 1.6-4.85 2.275-1.276 5.149-.588 6.6 1.58.742 1.332 1.32 2.749 1.72 4.22.174.227.319.476.43.74.35 1.08.45 2.16.79 3.15.601 1.609 1.288 3.185 2.06 4.72.34.74.52 1.82 1.27 2 .85.027 1.669-.32 2.24-.95.82-.84 1.47-1.94 2.21-2.86l.57-1c.9-1.18 2.05-2 3-3.12l4.42-5.56c1.14-1.43 2.78-3.62 5.69-3.91.9-.08 2.9-.2 3.92 1.54zM448.74 107.08c-.79 3.26-1.16 6.84-2 10.27-.84 3.43-1.91 6.77-2.86 10.12-1.501 5.494-4.853 10.302-9.49 13.61-2.282 1.627-4.754 2.97-7.36 4-2.464 1.185-5.147 1.846-7.88 1.94-.25 0-.5-.24-.84-.24-2.66 0-5.16.15-7.59-.9-2.357-.906-4.462-2.363-6.14-4.25-1.59-1.968-2.577-4.354-2.84-6.87-.573-3.258-.505-6.598.2-9.83.31-1.5.79-3 1.1-4.59 1-4.43 2-9 3.4-13.45.985-3.208 2.43-6.256 4.29-9.05 1.895-2.76 4.265-5.16 7-7.09 2.674-1.997 5.666-3.528 8.85-4.53 3.606-1.011 7.401-1.148 11.07-.4 6.62 1.053 11.575 6.632 11.84 13.33.124 2.665-.129 5.335-.75 7.93zm-11.13-10.42c-2.509-2.153-5.93-2.904-9.11-2-3.072.78-5.889 2.34-8.18 4.53-2.05 2-3.26 5-4.3 8.14-.63 2.26-1.35 4.43-2 6.77l-1.63 6.78c-.39 1.84-1 3.59-1.43 5.43-.221.451-.382.928-.48 1.42l.34.49c-.19 4.42 1.52 7.31 5.45 9 2.818 1.21 6.034 1.074 8.74-.37 4.72-2.15 8-5.27 9.45-9.62 1.28-3.51 2.15-7.27 3.18-11.2.87-3.59 1.81-7.35 2.59-11.36.589-2.955-.408-6.004-2.63-8.04l.01.03zM508.33 86.42c.657.693 1.016 1.616 1 2.57-.109 1.254-.371 2.49-.78 3.68-.39 1.75-.14 1.75-.62 3.51l-2.29 9.27c-.79 3.09-1.83 6.19-2.62 9.36-.79 3.17-1.41 6.26-2.29 9.36-1.737 6.559-5.607 12.353-11 16.47-2.264 1.546-4.709 2.809-7.28 3.76-2.578.884-5.276 1.369-8 1.44v.08c-2.91.132-5.813-.369-8.51-1.47-2.699-1.152-4.908-3.215-6.24-5.83-1.395-2.572-2.12-5.454-2.11-8.38-.154-2.258-.017-4.527.41-6.75 1.11-4.26 2.13-8.61 3.24-13 .63-2.51 1.35-4.93 2-7.44.65-2.51 1.6-4.94 2.23-7.44.55-2.09.94-4.26 1.74-6.44.523-1.226 1.447-2.238 2.62-2.87 1.32-.85 2.65-1.2 3.91-.47 1.157.609 1.855 1.834 1.79 3.14-.106 1.459-.31 2.909-.61 4.34l-2.6 10.61c-.63 2.34-1.6 4.69-2.23 7.11-.63 2.42-.93 4.84-1.57 7.27l-.24.67c-.646 2.435-1.084 4.921-1.31 7.43-.464 3.081.639 6.19 2.94 8.29 2.19 1.88 5.12 2.51 8.6 1.71 2.804-.573 5.386-1.937 7.44-3.93 2.072-2.012 3.685-4.448 4.73-7.14 1.041-2.875 1.92-5.806 2.63-8.78l.89-1.93c.95-3.68 1.81-7.35 2.68-10.94.79-3.34 1.32-6.85 2.19-10.19.59-1.723 1.319-3.395 2.18-5 .56-1.821 2.216-3.083 4.12-3.14 1.08.007 2.125.384 2.96 1.07zM554.08 89.46c2 2.72 2.75 6.37 2.57 11-.177 3.472-1.098 6.865-2.7 9.95-1.747 3.021-3.992 5.726-6.64 8-1.167 1.119-2.403 2.164-3.7 3.13-2.72 2-3.27 4.46-2 7.77.34.91.1 1 .44 1.82.34.82.69 1.49.94 2.15.18.5.43.83.6 1.24.34.74.6 1.41.86 2.07.61 1.74 1.05 4-1 5.68-.729.678-1.66 1.099-2.65 1.2-1.562-.118-3.026-.809-4.11-1.94-1.28-1.122-2.271-2.535-2.89-4.12-.18-.624-.411-1.233-.69-1.82-.46-1.468-1.008-2.907-1.64-4.31-.398-1.275-1.007-2.475-1.8-3.55-.934-.901-2.22-1.341-3.51-1.2-1.252.175-2.357.911-3 2-.727 1.217-1.324 2.508-1.78 3.85v.5c-.32 1.09-.8 2.18-1.12 3.26-.32 1.08-.14 2.08-.46 3.09-.525 1.512-1.594 2.775-3 3.54-1.388.941-3.186 1.03-4.66.23-1.26-.73-1.61-2.31-1.39-3.89.056-1.229.179-2.454.37-3.67l2.71-8.86c.79-3 1.08-6.09 1.88-9 .8-2.91 1.75-5.94 2.54-8.95.79-3.01 1.33-6 2.13-8.94 1.89-8 0 .33 2.76-11.36 1-3.43 3.43-5 6.84-5.17l14.49.13c4.55 1.16 7.66 3.29 9.61 6.17zm-8.74 6.28c-1.925-2.521-4.961-3.94-8.13-3.8l-1.08.18c-2.66.29-4.06 1.39-4.78 3.56-1 2.84-2 5.69-2.8 8.7-.8 3.01-1.17 6-1.71 9-.23 1.34-.47 2.42.13 3.08.6.66 1.84.73 3.42.7 3.553-.103 6.991-1.281 9.86-3.38 2.839-2.147 4.998-5.067 6.22-8.41 1.28-3.66.92-7.07-1.08-9.62l-.05-.01zM671.15 88.28c-1.62 3.6-3.31 7.37-5.34 11.4-1.21 2.6-2.51 5.11-3.81 7.71-1.3 2.6-2.68 5-4 7.55-1.32 2.55-2.43 5.11-3.73 7.63-1.3 2.52-2.51 5.11-3.72 7.71l-3.73 7.3-.73 1.18c-.835 1.525-2.219 2.676-3.87 3.22-.74.26-1.32.93-2 .94-.91-.021-1.8-.268-2.59-.72-1.17-.65-1.61-2.14-1.8-3.72-.472-2.444-.786-4.916-.94-7.4.039-.145.092-.286.16-.42 0-2.91-.08-5.83 0-8.83 0-1.83.12-3.67.17-5.58.042-.972.002-1.945-.12-2.91-.1-1.08-.35-1.66-1.11-1.82-.74-.305-1.588.043-1.9.78-.948 1.52-1.816 3.089-2.6 4.7l-5.43 10.57c-1.54 3.1-3.25 6.12-4.79 9.14-.549 1.333-1.198 2.624-1.94 3.86-1.14 1.6-2.88 2.2-5.22 2.24v.17c-1.974.184-3.74-1.225-4-3.19-.344-1.785-.591-3.588-.74-5.4 0-2.5-.23-5.08-.27-7.57-.04-2.49.18-5.08.23-7.58 0-2.91-.37-2.91-.41-5.82 0-4.33.47-8.67.74-12.92.2-3.42.32-7 .44-10.5-.061-1.266.091-2.534.45-3.75.64-2.17 2.71-3.12 5-2.9 1.948.005 3.564 1.508 3.71 3.45.36 2.199.557 4.422.59 6.65 0 2.67-.26 5.33-.39 8 0 2.92-.25 5.83-.3 8.83.105 1.739.379 3.464.82 5.15.014.477.27.915.68 1.16.475-.089.876-.407 1.07-.85 1.047-1.374 1.974-2.836 2.77-4.37 1.46-3 3.25-5.88 4.71-8.81 1.3-2.6 2.51-5.2 3.81-7.71.903-1.809 1.936-3.55 3.09-5.21 1.087-1.965 3.051-3.289 5.28-3.56 2.267-.282 4.378 1.202 4.88 3.43.247 1.654.324 3.33.23 5 0 2.91.33 5.82.29 8.74 0 2.25-.19 4.58-.16 6.83-.074 1.971-.021 3.946.16 5.91-.016.597.362 1.134.93 1.32.67.07 1-.68 1.23-1.1.9-1.43 2.21-3.2 3.18-5 1.21-2.52 2.18-5.19 3.48-7.79 1.3-2.6 2.85-4.87 4.15-7.39l3.72-7.8c.673-1.843 1.903-3.43 3.52-4.54 2-1.28 3.81-1.72 5.24-.74 2.43 1.56 1.31 4.49.91 5.33zM665.77 139.9c-.796-.814-1.01-2.033-.54-3.07.521-1.757 1.19-3.466 2-5.11 1.63-2.85 3.25-5.62 4.8-8.48 1.55-2.86 2.92-5.79 4.46-8.64 1.54-2.85 3.42-5.46 5-8.31 1.58-2.85 2.84-5.78 4.38-8.64 1.54-2.86 3.34-5.54 4.88-8.39 1-1.68 2.2-3.28 3.43-5 .831-1.291 2.134-2.206 3.63-2.55 2.66-.62 4.49-.48 5.84.5 1.18.9 1.78 2.22 2 4.3.11.754.26 1.502.45 2.24l.29 3.08.66 11.65c.12 2.33-.1 4.67 0 7s.4 4.74.51 7.07c.12 2.83.41 5.74.62 8.74l.31 4.49c-.146-.011-.292.02-.42.09h.5c-.073.48-.176.954-.31 1.42.096 1.529.032 3.064-.19 4.58-.316 2.269-2.24 3.968-4.53 4l-.42-.25c-2.078-.103-3.73-1.781-3.8-3.86-.212-1.267-.342-2.546-.39-3.83-.1-1.08-.2-2.25-.38-3.33-.47-3.91-1.48-5.06-5.65-5.42-.42-.08-.83.09-1.25 0-.378.105-.768.166-1.16.18-3.08-.21-5.66-.09-7.73.94-2.365 1.27-4.175 3.373-5.08 5.9-.955 1.884-2.072 3.681-3.34 5.37l-.39 1.59c-1.123 1.694-2.972 2.767-5 2.9-1.193.235-2.418-.212-3.18-1.16zm32-32.08v-.58c-.101-.437-.161-.882-.18-1.33-.18-1.25-.37-2.41-.63-3.65-.055-.613-.438-1.149-1-1.4-.138.021-.275.051-.41.09-.442.123-.808.433-1 .85-2.507 2.989-4.464 6.398-5.78 10.07-.139.467-.104.968.1 1.41.265.547.715.982 1.27 1.23 2.84.54 4.75-.15 5.9-1.16 1.308-1.147 1.945-2.879 1.69-4.6 0-.26.08-.52.08-.93h-.04zM762.16 82.54c.691 1.145.54 2.61-.37 3.59-2.86 4-6 8-8.26 11l-.08.17c-2.7 3.54-5.57 7.15-8.35 10.77-2.13 2.53-3.34 5.71-4.29 9.38-.55 2.51-1.35 4.93-2 7.6l-2 7.52c-.509 1.737-1.127 3.44-1.85 5.1-.672 1.718-2.185 2.966-4 3.3-.42 0-.75.09-1.08.1-.935.084-1.865-.203-2.59-.8-.67-.57-1.19-1.82-1.06-4.07l-.17-.16.24-1c.23-1.08.38-2.42.7-3.67.48-1.75.48-1.75.87-3.42.95-3.68 1.73-7.44 2.76-11.2 1.063-3.504 1.042-7.248-.06-10.74-1.05-3.73-1.94-7.55-2.9-11.2-.44-1.74-.88-3.4-1.4-5.06l-.43-1.16c-.17-.58 0-1.17-.19-1.75-.53-2.24-.14-3.91 1.6-4.85 2.275-1.276 5.149-.588 6.6 1.58.742 1.332 1.319 2.749 1.72 4.22.175.227.319.476.43.74.35 1.08.45 2.16.79 3.15.601 1.609 1.289 3.185 2.06 4.72.34.74.53 1.82 1.28 2 .847.025 1.662-.322 2.23-.95.82-.84 1.47-1.94 2.21-2.86l.57-1c.9-1.18 2.05-2 3-3.12l4.42-5.56c1.15-1.43 2.78-3.62 5.69-3.91.89-.08 2.89-.19 3.91 1.54z"/></g></svg>